<?xml version="1.0" encoding="UTF-8"?>
<svg width="250px" height="68px" viewBox="0 0 250 68" version="1.1" xmlns="http://www.w3.org/2000/svg" xmlns:xlink="http://www.w3.org/1999/xlink">
    <title>IMP_ML_W_N</title>
    <defs>
        <polygon id="path-1" points="0.118371004 0.213073171 92.9473645 0.213073171 92.9473645 27.8634146 0.118371004 27.8634146"></polygon>
        <polygon id="path-3" points="0.231258065 0.353756098 106.603755 0.353756098 106.603755 27.9590244 0.231258065 27.9590244"></polygon>
    </defs>
    <g id="Page-1" stroke="none" stroke-width="1" fill="none" fill-rule="evenodd">
        <g id="24-x-36-inches---poster-1" transform="translate(-127.000000, -42.000000)">
            <g id="IMP_ML_W_N" transform="translate(127.000000, 42.403196)">
                <polygon id="Fill-1" fill="#FFFFFE" points="0 28.5968036 5 28.5968036 5 2.59680363 0 2.59680363"></polygon>
                <path d="M12.7439846,11.370295 L12.8161935,11.370295 C14.038294,9.61262037 16.3735007,8.59721916 18.4954869,8.59721916 C20.7578036,8.59721916 22.697224,9.57442572 23.7776318,11.370295 C25.289249,9.80935886 27.6244556,8.63685512 29.7464419,8.59721916 C33.8030801,8.55830385 35.9277912,11.2549904 36,15.7446636 L36,28.5578883 L31.2165049,28.5578883 L31.2165049,16.6836755 C31.2165049,14.4193813 30.4978225,12.0758151 28.1285551,12.0758151 C25.8280904,12.0758151 24.391407,13.5574793 24.391407,16.955362 L24.391407,28.5968036 L19.6092743,28.5968036 L19.6092743,16.6836755 C19.6092743,13.9502356 18.4954869,12.0758151 16.447072,12.0758151 C14.1806681,12.0758151 12.7814515,13.7534972 12.7814515,17.0735492 L12.7814515,28.5968036 L8,28.5968036 L8,9.06636479 L12.7439846,9.06636479 L12.7439846,11.370295" id="Fill-2" fill="#FFFFFE"></path>
                <path d="M43.8953672,9.03810613 L39,9.03810613 L39,36.5968036 L43.8953672,36.5968036 L43.8953672,25.1310731 C45.2600389,26.750538 47.1712774,27.8493881 49.4168779,27.8493881 C54.6849994,27.8493881 58,22.6710319 58,17.8200938 C58,13.7778713 55.6448069,8.59680363 49.8629266,8.59680363 C47.6529263,8.59680363 45.2600389,9.69972095 43.9693596,11.5720366 L43.8953672,11.5720366 L43.8953672,9.03810613 Z M48.6099416,11.5374646 C51.4062971,11.5374646 52.8065689,14.6977599 52.8065689,17.8573774 C52.8065689,21.0902064 51.7036629,24.9114387 48.4270546,24.9114387 C45.7744958,24.9114387 43.8953672,22.3029409 43.8953672,18.4451029 C43.8953672,14.2184959 45.5162203,11.5374646 48.6099416,11.5374646 L48.6099416,11.5374646 Z" id="Fill-3" fill="#FFFFFE"></path>
                <path d="M76.9646177,19.0541819 C77.3240551,13.3684666 74.9577014,8.59680363 69.281212,8.59680363 C64.0759236,8.59680363 60,12.3382212 60,18.2168874 C60,24.5159614 64.1111085,28.5968036 69.608914,28.5968036 C71.6820607,28.5968036 74.2664225,27.9862617 76.7417803,26.4609633 L75.3578428,23.7899306 C74.1587983,24.6659561 72.2629557,25.3180458 70.4816363,25.3180458 C67.4605684,25.3180458 65.0597197,22.6441963 65.1701035,19.0541819 L76.9646177,19.0541819 Z M65.2411631,16.3063913 C65.2052884,13.7536643 66.4408976,11.4220563 69.2080827,11.4220563 C71.6096213,11.4220563 72.5934173,13.4064934 72.4099042,16.3063913 L65.2411631,16.3063913 L65.2411631,16.3063913 Z" id="Fill-4" fill="#FFFFFE"></path>
                <path d="M83.0934091,12.5028284 L83.1709032,12.5028284 L84.2104938,10.9800553 C84.8267911,10.1584929 85.9468001,8.59680363 87.5273872,8.59680363 C88.6854122,8.59680363 89.9172759,9.22378546 91,10.3537941 L89.0721516,13.9499313 C88.224103,13.5189714 87.6831065,13.2840334 86.6420538,13.2840334 C84.8684625,13.2840334 83.130694,14.7296949 83.130694,18.94849 L83.130694,28.5968036 L78,28.5968036 L78,9.065959 L83.0934091,9.065959 L83.0934091,12.5028284" id="Fill-5" fill="#FFFFFE"></path>
                <path d="M93,4.45694118 C93,3.0419474 94.0060794,1.59680363 95.4216236,1.59680363 C96.8669686,1.59680363 98,3.00768605 98,4.45694118 C98,6.05214966 97.0231255,7.57403886 95.4818214,7.57403886 C94.0060794,7.57403886 93,6.05214966 93,4.45694118 Z M93.4088688,28.5968036 L97.5887472,28.5968036 L97.5887472,10.0257811 L93.4088688,10.0257811 L93.4088688,28.5968036 Z" id="Fill-6" fill="#FFFFFE"></path>
                <g id="Group-10" transform="translate(100.000000, 0.596804)" fill="#FFFFFE">
                    <path d="M10.9851429,24.7178537 C10.9851429,25.7169756 11.0921143,26.7912195 11.4521143,27.4201951 L16.5552,27.4201951 C15.9750857,26.124 15.7940571,24.3845854 15.7940571,22.904 L15.7940571,15.3542439 C15.7940571,9.57873171 11.7078857,8.46760976 8.37874286,8.46760976 C5.88342857,8.46760976 3.67748571,9.09726829 1.43177143,10.9862439 L2.98628571,13.3177561 C4.25485714,12.2066341 5.7024,11.4301463 7.7664,11.4301463 C9.3216,11.4301463 10.8027429,12.5043902 11.0557714,14.2062439 L6.78582857,15.5010732 C2.58857143,16.7214634 0.0939428571,18.7210732 0.0939428571,22.2395122 C0.0939428571,25.6425366 2.44388571,27.8634146 5.26628571,27.8634146 C6.93051429,27.8634146 8.56182857,26.7174634 9.90034286,25.6425366 L10.9851429,24.7178537 Z M11.0557714,16.6859512 C11.4171429,22.1247805 8.92388571,24.5703415 7.00594286,24.5703415 C5.84845714,24.5703415 4.83222857,23.4605854 4.83222857,21.830439 C4.83222857,19.721561 6.02811429,18.3154146 8.37874286,17.5730732 L11.0557714,16.6859512 L11.0557714,16.6859512 Z" id="Fill-7"></path>
                    <polygon id="Fill-9" points="18.7981714 27.420878 23.6070857 27.420878 23.6070857 0.213073171 18.7981714 0.213073171"></polygon>
                </g>
                <path d="M156.354689,6.78006051 C155.07666,6.1078128 152.942586,5.32616142 150.915784,5.32616142 C145.520925,5.32616142 141.625032,9.09267518 141.625032,15.0231798 C141.625032,21.2144642 145.935805,24.868822 151.067102,24.868822 C153.092483,24.868822 154.965836,24.3080422 156.354689,23.5621706 L157.816004,26.8078128 C156.204792,27.7408403 153.393697,28.5968036 150.843322,28.5968036 C141.733015,28.5968036 136,22.6298311 136,14.9495559 C136,7.82524399 141.699625,1.59680363 150.915784,1.59680363 C153.654417,1.59680363 156.204792,2.56698711 158,3.61079445 L156.354689,6.78006051" id="Fill-11" fill="#FFFFFE"></path>
                <g id="Group-18" transform="translate(157.000000, 0.596804)">
                    <mask id="mask-2" fill="white">
                        <use xlink:href="#path-1"></use>
                    </mask>
                    <g id="Clip-13"></g>
                    <path d="M9.69111206,27.8634146 C15.4311553,27.8634146 19.2984818,23.6832195 19.2984818,17.9445854 C19.2984818,11.9478049 14.624308,8.46760976 9.69111206,8.46760976 C4.79323731,8.46760976 0.118371004,11.9478049 0.118371004,17.9445854 C0.118371004,23.6832195 3.99123803,27.8634146 9.69111206,27.8634146 Z M9.69111206,25.124878 C6.21924468,25.124878 5.27111254,21.2021463 5.27111254,17.9445854 C5.27111254,14.8727805 6.36537754,11.2075122 9.69111206,11.2075122 C13.0895667,11.2075122 14.1471254,14.8727805 14.1471254,17.9445854 C14.1471254,21.2021463 13.2356996,25.124878 9.69111206,25.124878 L9.69111206,25.124878 Z" id="Fill-12" fill="#FFFFFE" mask="url(#mask-2)"></path>
                    <polygon id="Fill-14" fill="#FFFFFE" mask="url(#mask-2)" points="21.3935144 27.420878 26.256068 27.420878 26.256068 0.213073171 21.3935144 0.213073171"></polygon>
                    <polygon id="Fill-15" fill="#FFFFFE" mask="url(#mask-2)" points="29.3186248 27.420878 34.1763304 27.420878 34.1763304 0.213073171 29.3186248 0.213073171"></polygon>
                    <path d="M53.2234671,18.6090732 C53.5898381,13.095122 51.2150061,8.46760976 45.5144395,8.46760976 C40.2903629,8.46760976 36.1931023,12.096 36.1931023,17.7970732 C36.1931023,23.9058537 40.3229138,27.8634146 45.8434115,27.8634146 C47.9239002,27.8634146 50.5182778,27.2713171 53.0053067,25.7920976 L51.6166983,23.2017561 C50.4123142,24.0513171 48.5091242,24.6837073 46.7195161,24.6837073 C43.688125,24.6837073 41.2738163,22.0906341 41.3846279,18.6090732 L53.2234671,18.6090732 Z M41.4608109,15.9442927 C41.4199491,13.4686829 42.6631173,11.2075122 45.438949,11.2075122 C47.8532578,11.2075122 48.8380963,13.132 48.6566422,15.9442927 L41.4608109,15.9442927 L41.4608109,15.9442927 Z" id="Fill-16" fill="#FFFFFE" mask="url(#mask-2)"></path>
                    <path d="M92.9113507,18.6090732 C93.2749514,13.095122 90.902197,8.46760976 85.202323,8.46760976 C79.9754762,8.46760976 75.8837561,12.096 75.8837561,17.7970732 C75.8837561,23.9058537 80.0107974,27.8634146 85.5306025,27.8634146 C87.6138614,27.8634146 90.2082391,27.2713171 92.6918051,25.7920976 L91.3038892,23.2017561 C90.0974275,24.0513171 88.1983929,24.6837073 86.4073996,24.6837073 C83.3732383,24.6837073 80.9658553,22.0906341 81.0725115,18.6090732 L92.9113507,18.6090732 Z M81.1452316,15.9442927 C81.110603,13.4686829 82.3510008,11.2075122 85.1289103,11.2075122 C87.538371,11.2075122 88.5280575,13.132 88.3445257,15.9442927 L81.1452316,15.9442927 L81.1452316,15.9442927 Z" id="Fill-17" fill="#FFFFFE" mask="url(#mask-2)"></path>
                </g>
                <path d="M231,9.03810613 L226.102222,9.03810613 L226.102222,11.2798686 L226.03034,11.2798686 C224.999559,9.62583159 222.78865,8.59680363 220.542149,8.59680363 C215.534105,8.59680363 212,13.2267516 212,18.0038004 C212,23.8824107 215.204702,27.8493881 220.101781,27.8493881 C222.901708,27.8493881 224.813921,26.306524 226.03034,24.7629821 L226.102222,24.7629821 L226.102222,27.1884511 C226.102222,31.450308 223.599596,33.4351525 220.357208,33.4351525 C217.854582,33.4351525 215.755335,32.9572442 213.953388,31.8556827 L212.993792,34.8675215 C215.167713,35.969083 217.96764,36.5968036 220.726391,36.5968036 C226.213884,36.5968036 231,33.9130607 231,25.7574379 L231,9.03810613 Z M221.647603,11.5374646 C224.594784,11.5374646 226.102222,14.5140534 226.102222,17.7102766 C226.102222,21.384408 224.702259,24.9114387 221.424279,24.9114387 C218.590156,24.9114387 217.192984,21.4569416 217.192984,17.8926274 C217.192984,14.3303468 218.481286,11.5374646 221.647603,11.5374646 L221.647603,11.5374646 Z" id="Fill-19" fill="#FFFFFE"></path>
                <polyline id="Fill-20" fill="#FFFFFE" points="0 39.5968036 5.15361472 39.5968036 5.15361472 62.1041845 16 62.1041845 16 65.5968036 0 65.5968036 0 39.5968036"></polyline>
                <g id="Group-27" transform="translate(17.000000, 38.596804)">
                    <mask id="mask-4" fill="white">
                        <use xlink:href="#path-3"></use>
                    </mask>
                    <g id="Clip-22"></g>
                    <path d="M27.9131935,11.2334634 C29.641071,9.45717073 32.0516774,8.60487805 34.4671161,8.60487805 C38.9514516,8.60487805 41.0990452,10.9746341 41.0990452,15.6383415 L41.0990452,27.5574634 L36.2315806,27.5574634 L36.2315806,16.1942439 C36.2315806,13.6045854 35.0428452,11.9020488 32.3982194,11.9020488 C29.9040839,11.9020488 27.950471,13.4912195 27.950471,16.5261463 L27.950471,27.5574634 L23.0823161,27.5574634 L23.0823161,9.0515122 L27.9131935,9.0515122 L27.9131935,11.2334634" id="Fill-21" fill="#FFFFFE" mask="url(#mask-4)"></path>
                    <path d="M58.3433032,27.5574634 L63.2114581,27.5574634 L63.2114581,0.353756098 L58.3433032,0.353756098 L58.3433032,11.1993171 L58.2659871,11.1993171 C57.1166,9.56780488 54.8951419,8.60487805 52.4037677,8.60487805 C47.2650065,8.60487805 43.6629032,13.2699512 43.6629032,18.0818537 C43.6629032,24.0028293 46.996471,28 52.0199484,28 C55.0097355,28 57.0020065,26.4463415 58.2659871,24.8906341 L58.3433032,24.8906341 L58.3433032,27.5574634 Z M53.7050258,11.5694634 C56.7728194,11.5694634 58.3433032,14.5675122 58.3433032,17.7854634 C58.3433032,21.4889756 56.8887935,25.0401951 53.4744581,25.0401951 C50.5240194,25.0401951 49.068129,21.5606829 49.068129,17.9712195 C49.068129,14.3810732 50.4108065,11.5694634 53.7050258,11.5694634 L53.7050258,11.5694634 Z" id="Fill-23" fill="#FFFFFE" mask="url(#mask-4)"></path>
                    <path d="M75.8616194,28 C81.878471,28 85.940329,23.8170732 85.940329,18.0818537 C85.940329,12.087122 81.0362774,8.60487805 75.8616194,8.60487805 C70.7242387,8.60487805 65.8181161,12.087122 65.8181161,18.0818537 C65.8181161,23.8170732 69.8820452,28 75.8616194,28 Z M75.8616194,25.2600976 C72.2222387,25.2600976 71.2219613,21.3380488 71.2219613,18.0818537 C71.2219613,15.0107317 72.3706581,11.3454634 75.8616194,11.3454634 C79.4285161,11.3454634 80.5371742,15.0107317 80.5371742,18.0818537 C80.5371742,21.3380488 79.5817677,25.2600976 75.8616194,25.2600976 L75.8616194,25.2600976 Z" id="Fill-24" fill="#FFFFFE" mask="url(#mask-4)"></path>
                    <path d="M93.4172129,11.2334634 C95.1430194,9.45717073 97.5570774,8.60487805 99.9704452,8.60487805 C104.455471,8.60487805 106.603755,10.9746341 106.603755,15.6383415 L106.603755,27.5574634 L101.73629,27.5574634 L101.73629,16.1942439 C101.73629,13.6045854 100.547555,11.9020488 97.9008581,11.9020488 C95.4115548,11.9020488 93.4551806,13.4912195 93.4551806,16.5261463 L93.4551806,27.5574634 L88.5870258,27.5574634 L88.5870258,9.0515122 L93.4172129,9.0515122 L93.4172129,11.2334634" id="Fill-25" fill="#FFFFFE" mask="url(#mask-4)"></path>
                    <path d="M10.2747613,28 C16.2916129,28 20.3541613,23.8170732 20.3541613,18.0818537 C20.3541613,12.087122 15.4473484,8.60487805 10.2747613,8.60487805 C5.13669032,8.60487805 0.231258065,12.087122 0.231258065,18.0818537 C0.231258065,23.8170732 4.29311613,28 10.2747613,28 Z M10.2747613,25.2600976 C6.62985806,25.2600976 5.63579355,21.3380488 5.63579355,18.0818537 C5.63579355,15.0107317 6.78449032,11.3454634 10.2747613,11.3454634 C13.8388968,11.3454634 14.9510065,15.0107317 14.9510065,18.0818537 C14.9510065,21.3380488 13.9900774,25.2600976 10.2747613,25.2600976 L10.2747613,25.2600976 Z" id="Fill-26" fill="#FFFFFE" mask="url(#mask-4)"></path>
                </g>
            </g>
        </g>
    </g>
</svg>